<?xml version="1.0" standalone="no"?><!DOCTYPE svg PUBLIC "-//W3C//DTD SVG 1.1//EN" "http://www.w3.org/Graphics/SVG/1.1/DTD/svg11.dtd"><svg t="1512712911007" class="icon" style="" viewBox="0 0 1024 1024" version="1.1" xmlns="http://www.w3.org/2000/svg" p-id="1182" xmlns:xlink="http://www.w3.org/1999/xlink" width="32" height="32"><defs><style type="text/css"></style></defs><path d="M1024 512c0 41.422-33.578 75-75 75H75c-41.422 0-75-33.578-75-75 0-41.421 33.578-75 75-75h874c41.422 0 75 33.579 75 75zM1024 862c0 41.422-33.578 75-75 75H75c-41.422 0-75-33.578-75-75s33.578-75 75-75h874c41.422 0 75 33.578 75 75zM1024 162c0 41.422-33.578 75-75 75H75c-41.422 0-75-33.578-75-75 0-41.421 33.578-75 75-75h874c41.422 0 75 33.579 75 75z" p-id="1183" fill="#ffffff"></path></svg>